<svg xmlns="http://www.w3.org/2000/svg" xmlns:xlink="http://www.w3.org/1999/xlink" width="500" zoomAndPan="magnify" viewBox="0 0 375 374.999991" height="500" preserveAspectRatio="xMidYMid meet" version="1.0"><defs><clipPath id="65ef2c8591"><path d="M 37.5 37.5 L 336.75 37.5 L 336.75 336.75 L 37.5 336.75 Z M 37.5 37.5 " clip-rule="nonzero"/></clipPath><clipPath id="eb5a83efa6"><path d="M 141.652344 141.277344 L 233.152344 141.277344 L 233.152344 232.777344 L 141.652344 232.777344 Z M 141.652344 141.277344 " clip-rule="nonzero"/></clipPath></defs><g clip-path="url(#65ef2c8591)"><path fill="#000000" d="M 336.75 187.125 C 336.75 189.574219 336.691406 192.019531 336.570312 194.464844 C 336.449219 196.914062 336.269531 199.355469 336.03125 201.789062 C 335.789062 204.226562 335.488281 206.65625 335.128906 209.078125 C 334.769531 211.5 334.351562 213.914062 333.875 216.316406 C 333.398438 218.71875 332.859375 221.105469 332.265625 223.480469 C 331.671875 225.855469 331.019531 228.214844 330.308594 230.558594 C 329.597656 232.902344 328.828125 235.226562 328.003906 237.53125 C 327.179688 239.835938 326.296875 242.121094 325.359375 244.382812 C 324.421875 246.644531 323.429688 248.882812 322.382812 251.097656 C 321.335938 253.3125 320.238281 255.5 319.082031 257.65625 C 317.929688 259.816406 316.722656 261.945312 315.460938 264.046875 C 314.203125 266.148438 312.894531 268.214844 311.535156 270.253906 C 310.171875 272.289062 308.761719 274.289062 307.304688 276.257812 C 305.847656 278.222656 304.339844 280.152344 302.785156 282.046875 C 301.234375 283.9375 299.632812 285.792969 297.988281 287.605469 C 296.34375 289.421875 294.65625 291.195312 292.925781 292.925781 C 291.195312 294.65625 289.421875 296.34375 287.605469 297.988281 C 285.792969 299.632812 283.9375 301.234375 282.046875 302.785156 C 280.152344 304.339844 278.222656 305.847656 276.257812 307.304688 C 274.289062 308.761719 272.289062 310.171875 270.253906 311.535156 C 268.214844 312.894531 266.148438 314.203125 264.046875 315.460938 C 261.945312 316.722656 259.816406 317.929688 257.65625 319.082031 C 255.5 320.238281 253.3125 321.335938 251.097656 322.382812 C 248.882812 323.429688 246.644531 324.421875 244.382812 325.359375 C 242.121094 326.296875 239.835938 327.179688 237.53125 328.003906 C 235.226562 328.828125 232.902344 329.597656 230.558594 330.308594 C 228.214844 331.019531 225.855469 331.671875 223.480469 332.265625 C 221.105469 332.859375 218.71875 333.398438 216.316406 333.875 C 213.914062 334.351562 211.5 334.769531 209.078125 335.128906 C 206.65625 335.488281 204.226562 335.789062 201.789062 336.03125 C 199.355469 336.269531 196.914062 336.449219 194.464844 336.570312 C 192.019531 336.691406 189.574219 336.75 187.125 336.75 C 184.675781 336.75 182.230469 336.691406 179.785156 336.570312 C 177.335938 336.449219 174.894531 336.269531 172.460938 336.03125 C 170.023438 335.789062 167.59375 335.488281 165.171875 335.128906 C 162.75 334.769531 160.335938 334.351562 157.933594 333.875 C 155.53125 333.398438 153.144531 332.859375 150.769531 332.265625 C 148.394531 331.671875 146.035156 331.019531 143.691406 330.308594 C 141.347656 329.597656 139.023438 328.828125 136.71875 328.003906 C 134.414062 327.179688 132.128906 326.296875 129.867188 325.359375 C 127.605469 324.421875 125.367188 323.429688 123.152344 322.382812 C 120.9375 321.335938 118.75 320.238281 116.59375 319.082031 C 114.433594 317.929688 112.300781 316.722656 110.203125 315.460938 C 108.101562 314.203125 106.035156 312.894531 103.996094 311.535156 C 101.960938 310.171875 99.960938 308.761719 97.992188 307.304688 C 96.027344 305.847656 94.097656 304.339844 92.203125 302.785156 C 90.3125 301.234375 88.457031 299.632812 86.644531 297.988281 C 84.828125 296.34375 83.054688 294.65625 81.324219 292.925781 C 79.59375 291.195312 77.90625 289.421875 76.261719 287.605469 C 74.617188 285.792969 73.015625 283.9375 71.464844 282.046875 C 69.910156 280.152344 68.402344 278.222656 66.945312 276.257812 C 65.488281 274.289062 64.078125 272.289062 62.714844 270.253906 C 61.355469 268.214844 60.046875 266.148438 58.789062 264.046875 C 57.527344 261.945312 56.320312 259.816406 55.167969 257.65625 C 54.011719 255.5 52.914062 253.3125 51.867188 251.097656 C 50.820312 248.882812 49.828125 246.644531 48.890625 244.382812 C 47.953125 242.121094 47.070312 239.835938 46.246094 237.53125 C 45.421875 235.226562 44.652344 232.902344 43.941406 230.558594 C 43.230469 228.214844 42.578125 225.855469 41.984375 223.480469 C 41.390625 221.105469 40.851562 218.71875 40.375 216.316406 C 39.898438 213.914062 39.480469 211.5 39.121094 209.078125 C 38.761719 206.65625 38.460938 204.226562 38.21875 201.789062 C 37.980469 199.355469 37.800781 196.914062 37.679688 194.464844 C 37.558594 192.019531 37.5 189.574219 37.5 187.125 C 37.5 184.675781 37.558594 182.230469 37.679688 179.785156 C 37.800781 177.335938 37.980469 174.894531 38.21875 172.460938 C 38.460938 170.023438 38.761719 167.59375 39.121094 165.171875 C 39.480469 162.75 39.898438 160.335938 40.375 157.933594 C 40.851562 155.53125 41.390625 153.144531 41.984375 150.769531 C 42.578125 148.394531 43.230469 146.035156 43.941406 143.691406 C 44.652344 141.347656 45.421875 139.023438 46.246094 136.71875 C 47.070312 134.414062 47.953125 132.128906 48.890625 129.867188 C 49.828125 127.605469 50.820312 125.367188 51.867188 123.152344 C 52.914062 120.9375 54.011719 118.75 55.167969 116.59375 C 56.320312 114.433594 57.527344 112.300781 58.789062 110.203125 C 60.046875 108.101562 61.355469 106.035156 62.714844 103.996094 C 64.078125 101.960938 65.488281 99.960938 66.945312 97.992188 C 68.402344 96.027344 69.910156 94.097656 71.464844 92.203125 C 73.015625 90.3125 74.617188 88.457031 76.261719 86.644531 C 77.90625 84.828125 79.59375 83.054688 81.324219 81.324219 C 83.054688 79.59375 84.828125 77.90625 86.644531 76.261719 C 88.457031 74.617188 90.3125 73.015625 92.203125 71.464844 C 94.097656 69.910156 96.027344 68.402344 97.992188 66.945312 C 99.960938 65.488281 101.960938 64.078125 103.996094 62.714844 C 106.035156 61.355469 108.101562 60.046875 110.203125 58.789062 C 112.300781 57.527344 114.433594 56.320312 116.59375 55.167969 C 118.75 54.011719 120.9375 52.914062 123.152344 51.867188 C 125.367188 50.820312 127.605469 49.828125 129.867188 48.890625 C 132.128906 47.953125 134.414062 47.070312 136.71875 46.246094 C 139.023438 45.421875 141.347656 44.652344 143.691406 43.941406 C 146.035156 43.230469 148.394531 42.578125 150.769531 41.984375 C 153.144531 41.390625 155.53125 40.851562 157.933594 40.375 C 160.335938 39.898438 162.75 39.480469 165.171875 39.121094 C 167.59375 38.761719 170.023438 38.460938 172.460938 38.21875 C 174.894531 37.980469 177.335938 37.800781 179.785156 37.679688 C 182.230469 37.558594 184.675781 37.5 187.125 37.5 C 189.574219 37.5 192.019531 37.558594 194.464844 37.679688 C 196.914062 37.800781 199.355469 37.980469 201.789062 38.21875 C 204.226562 38.460938 206.65625 38.761719 209.078125 39.121094 C 211.5 39.480469 213.914062 39.898438 216.316406 40.375 C 218.71875 40.851562 221.105469 41.390625 223.480469 41.984375 C 225.855469 42.578125 228.214844 43.230469 230.558594 43.941406 C 232.902344 44.652344 235.226562 45.421875 237.53125 46.246094 C 239.835938 47.070312 242.121094 47.953125 244.382812 48.890625 C 246.644531 49.828125 248.882812 50.820312 251.097656 51.867188 C 253.3125 52.914062 255.5 54.011719 257.65625 55.167969 C 259.816406 56.320312 261.945312 57.527344 264.046875 58.789062 C 266.148438 60.046875 268.214844 61.355469 270.253906 62.714844 C 272.289062 64.078125 274.289062 65.488281 276.257812 66.945312 C 278.222656 68.402344 280.152344 69.910156 282.046875 71.464844 C 283.9375 73.015625 285.792969 74.617188 287.605469 76.261719 C 289.421875 77.90625 291.195312 79.59375 292.925781 81.324219 C 294.65625 83.054688 296.34375 84.828125 297.988281 86.644531 C 299.632812 88.457031 301.234375 90.3125 302.785156 92.203125 C 304.339844 94.097656 305.847656 96.027344 307.304688 97.992188 C 308.761719 99.960938 310.171875 101.960938 311.535156 103.996094 C 312.894531 106.035156 314.203125 108.101562 315.460938 110.203125 C 316.722656 112.300781 317.929688 114.433594 319.082031 116.59375 C 320.238281 118.75 321.335938 120.9375 322.382812 123.152344 C 323.429688 125.367188 324.421875 127.605469 325.359375 129.867188 C 326.296875 132.128906 327.179688 134.414062 328.003906 136.71875 C 328.828125 139.023438 329.597656 141.347656 330.308594 143.691406 C 331.019531 146.035156 331.671875 148.394531 332.265625 150.769531 C 332.859375 153.144531 333.398438 155.53125 333.875 157.933594 C 334.351562 160.335938 334.769531 162.75 335.128906 165.171875 C 335.488281 167.59375 335.789062 170.023438 336.03125 172.460938 C 336.269531 174.894531 336.449219 177.335938 336.570312 179.785156 C 336.691406 182.230469 336.75 184.675781 336.75 187.125 Z M 336.75 187.125 " fill-opacity="1" fill-rule="nonzero"/></g><g clip-path="url(#eb5a83efa6)"><path fill="#ffb8b8" d="M 233.152344 187.027344 C 233.152344 188.527344 233.078125 190.019531 232.929688 191.511719 C 232.785156 193.003906 232.5625 194.484375 232.273438 195.953125 C 231.980469 197.421875 231.617188 198.875 231.179688 200.308594 C 230.746094 201.742188 230.242188 203.152344 229.667969 204.535156 C 229.09375 205.921875 228.457031 207.273438 227.75 208.59375 C 227.042969 209.914062 226.273438 211.199219 225.441406 212.445312 C 224.609375 213.691406 223.71875 214.894531 222.765625 216.050781 C 221.816406 217.210938 220.8125 218.320312 219.75 219.378906 C 218.691406 220.4375 217.582031 221.441406 216.425781 222.394531 C 215.265625 223.34375 214.0625 224.234375 212.820312 225.066406 C 211.574219 225.898438 210.289062 226.667969 208.96875 227.375 C 207.644531 228.082031 206.292969 228.722656 204.910156 229.296875 C 203.523438 229.867188 202.117188 230.371094 200.679688 230.808594 C 199.246094 231.242188 197.796875 231.605469 196.328125 231.898438 C 194.855469 232.191406 193.375 232.410156 191.886719 232.558594 C 190.394531 232.703125 188.898438 232.777344 187.402344 232.777344 C 185.902344 232.777344 184.40625 232.703125 182.917969 232.558594 C 181.425781 232.410156 179.945312 232.191406 178.476562 231.898438 C 177.007812 231.605469 175.554688 231.242188 174.121094 230.808594 C 172.6875 230.371094 171.277344 229.867188 169.894531 229.296875 C 168.507812 228.722656 167.15625 228.082031 165.835938 227.375 C 164.511719 226.667969 163.230469 225.898438 161.984375 225.066406 C 160.738281 224.234375 159.535156 223.34375 158.378906 222.394531 C 157.21875 221.441406 156.109375 220.4375 155.050781 219.378906 C 153.992188 218.320312 152.988281 217.210938 152.035156 216.050781 C 151.085938 214.894531 150.195312 213.691406 149.363281 212.445312 C 148.527344 211.199219 147.757812 209.914062 147.054688 208.59375 C 146.347656 207.273438 145.707031 205.921875 145.132812 204.535156 C 144.558594 203.152344 144.054688 201.742188 143.621094 200.308594 C 143.1875 198.875 142.824219 197.421875 142.53125 195.953125 C 142.238281 194.484375 142.019531 193.003906 141.871094 191.511719 C 141.722656 190.019531 141.652344 188.527344 141.652344 187.027344 C 141.652344 185.53125 141.722656 184.035156 141.871094 182.542969 C 142.019531 181.050781 142.238281 179.570312 142.53125 178.101562 C 142.824219 176.632812 143.1875 175.179688 143.621094 173.746094 C 144.054688 172.3125 144.558594 170.90625 145.132812 169.519531 C 145.707031 168.136719 146.347656 166.78125 147.054688 165.460938 C 147.757812 164.140625 148.527344 162.855469 149.363281 161.609375 C 150.195312 160.363281 151.085938 159.164062 152.035156 158.003906 C 152.988281 156.847656 153.992188 155.738281 155.050781 154.679688 C 156.109375 153.617188 157.21875 152.613281 158.378906 151.664062 C 159.535156 150.710938 160.738281 149.820312 161.984375 148.988281 C 163.230469 148.15625 164.511719 147.386719 165.835938 146.679688 C 167.15625 145.972656 168.507812 145.332031 169.894531 144.761719 C 171.277344 144.1875 172.6875 143.683594 174.121094 143.246094 C 175.554688 142.8125 177.007812 142.449219 178.476562 142.15625 C 179.945312 141.863281 181.425781 141.644531 182.917969 141.5 C 184.40625 141.351562 185.902344 141.277344 187.402344 141.277344 C 188.898438 141.277344 190.394531 141.351562 191.886719 141.5 C 193.375 141.644531 194.855469 141.863281 196.328125 142.15625 C 197.796875 142.449219 199.246094 142.8125 200.679688 143.246094 C 202.117188 143.683594 203.523438 144.1875 204.910156 144.761719 C 206.292969 145.332031 207.644531 145.972656 208.96875 146.679688 C 210.289062 147.386719 211.574219 148.15625 212.820312 148.988281 C 214.0625 149.820312 215.265625 150.710938 216.425781 151.664062 C 217.582031 152.613281 218.691406 153.617188 219.75 154.679688 C 220.8125 155.738281 221.816406 156.847656 222.765625 158.003906 C 223.71875 159.164062 224.609375 160.363281 225.441406 161.609375 C 226.273438 162.855469 227.042969 164.140625 227.75 165.460938 C 228.457031 166.78125 229.09375 168.136719 229.667969 169.519531 C 230.242188 170.90625 230.746094 172.3125 231.179688 173.746094 C 231.617188 175.179688 231.980469 176.632812 232.273438 178.101562 C 232.5625 179.570312 232.785156 181.050781 232.929688 182.542969 C 233.078125 184.035156 233.152344 185.53125 233.152344 187.027344 Z M 233.152344 187.027344 " fill-opacity="1" fill-rule="nonzero"/></g></svg>