<svg xmlns="http://www.w3.org/2000/svg" xmlns:xlink="http://www.w3.org/1999/xlink" width="500" zoomAndPan="magnify" viewBox="0 0 375 374.999991" height="500" preserveAspectRatio="xMidYMid meet" version="1.0"><defs><g/><clipPath id="acd7a1563c"><path d="M 249.414062 186.769531 L 323.664062 186.769531 L 323.664062 261.019531 L 249.414062 261.019531 Z M 249.414062 186.769531 " clip-rule="nonzero"/></clipPath><clipPath id="9de6ee1771"><path d="M 276.148438 213.503906 L 297.148438 213.503906 L 297.148438 234.503906 L 276.148438 234.503906 Z M 276.148438 213.503906 " clip-rule="nonzero"/></clipPath></defs><g clip-path="url(#acd7a1563c)"><path fill="#000000" d="M 323.664062 223.894531 C 323.664062 225.113281 323.605469 226.324219 323.488281 227.535156 C 323.367188 228.746094 323.1875 229.945312 322.953125 231.136719 C 322.714844 232.332031 322.417969 233.507812 322.066406 234.671875 C 321.714844 235.835938 321.304688 236.980469 320.839844 238.101562 C 320.375 239.226562 319.855469 240.324219 319.28125 241.394531 C 318.707031 242.46875 318.085938 243.511719 317.410156 244.519531 C 316.734375 245.53125 316.011719 246.507812 315.238281 247.449219 C 314.46875 248.386719 313.652344 249.289062 312.792969 250.148438 C 311.933594 251.007812 311.03125 251.824219 310.09375 252.59375 C 309.152344 253.363281 308.175781 254.089844 307.164062 254.765625 C 306.15625 255.441406 305.113281 256.0625 304.042969 256.636719 C 302.96875 257.210938 301.871094 257.730469 300.746094 258.195312 C 299.625 258.660156 298.480469 259.070312 297.316406 259.421875 C 296.152344 259.773438 294.976562 260.070312 293.78125 260.308594 C 292.589844 260.542969 291.390625 260.722656 290.179688 260.84375 C 288.96875 260.960938 287.757812 261.019531 286.539062 261.019531 C 285.324219 261.019531 284.113281 260.960938 282.902344 260.84375 C 281.691406 260.722656 280.488281 260.542969 279.296875 260.308594 C 278.105469 260.070312 276.925781 259.773438 275.761719 259.421875 C 274.601562 259.070312 273.457031 258.660156 272.332031 258.195312 C 271.210938 257.730469 270.113281 257.210938 269.039062 256.636719 C 267.96875 256.0625 266.925781 255.441406 265.914062 254.765625 C 264.902344 254.089844 263.929688 253.363281 262.988281 252.59375 C 262.046875 251.824219 261.148438 251.007812 260.289062 250.148438 C 259.429688 249.289062 258.613281 248.386719 257.84375 247.449219 C 257.070312 246.507812 256.347656 245.53125 255.671875 244.519531 C 254.996094 243.511719 254.371094 242.46875 253.800781 241.394531 C 253.226562 240.324219 252.707031 239.226562 252.242188 238.101562 C 251.777344 236.980469 251.367188 235.835938 251.015625 234.671875 C 250.660156 233.507812 250.367188 232.332031 250.128906 231.136719 C 249.890625 229.945312 249.714844 228.746094 249.59375 227.535156 C 249.476562 226.324219 249.414062 225.113281 249.414062 223.894531 C 249.414062 222.679688 249.476562 221.46875 249.59375 220.257812 C 249.714844 219.046875 249.890625 217.84375 250.128906 216.652344 C 250.367188 215.460938 250.660156 214.28125 251.015625 213.117188 C 251.367188 211.957031 251.777344 210.8125 252.242188 209.6875 C 252.707031 208.566406 253.226562 207.46875 253.800781 206.394531 C 254.371094 205.324219 254.996094 204.28125 255.671875 203.269531 C 256.347656 202.257812 257.070312 201.285156 257.84375 200.34375 C 258.613281 199.402344 259.429688 198.503906 260.289062 197.644531 C 261.148438 196.785156 262.046875 195.96875 262.988281 195.199219 C 263.929688 194.425781 264.902344 193.703125 265.914062 193.027344 C 266.925781 192.351562 267.96875 191.726562 269.039062 191.15625 C 270.113281 190.582031 271.210938 190.0625 272.332031 189.597656 C 273.457031 189.132812 274.601562 188.722656 275.761719 188.371094 C 276.925781 188.015625 278.105469 187.722656 279.296875 187.484375 C 280.488281 187.246094 281.691406 187.070312 282.902344 186.949219 C 284.113281 186.832031 285.324219 186.769531 286.539062 186.769531 C 287.757812 186.769531 288.96875 186.832031 290.179688 186.949219 C 291.390625 187.070312 292.589844 187.246094 293.78125 187.484375 C 294.976562 187.722656 296.152344 188.015625 297.316406 188.371094 C 298.480469 188.722656 299.625 189.132812 300.746094 189.597656 C 301.871094 190.0625 302.96875 190.582031 304.042969 191.15625 C 305.113281 191.726562 306.15625 192.351562 307.164062 193.027344 C 308.175781 193.703125 309.152344 194.425781 310.09375 195.199219 C 311.03125 195.96875 311.933594 196.785156 312.792969 197.644531 C 313.652344 198.503906 314.46875 199.402344 315.238281 200.34375 C 316.011719 201.285156 316.734375 202.257812 317.410156 203.269531 C 318.085938 204.28125 318.707031 205.324219 319.28125 206.394531 C 319.855469 207.46875 320.375 208.566406 320.839844 209.6875 C 321.304688 210.8125 321.714844 211.957031 322.066406 213.117188 C 322.417969 214.28125 322.714844 215.460938 322.953125 216.652344 C 323.1875 217.84375 323.367188 219.046875 323.488281 220.257812 C 323.605469 221.46875 323.664062 222.679688 323.664062 223.894531 Z M 323.664062 223.894531 " fill-opacity="1" fill-rule="nonzero"/></g><g fill="#000000" fill-opacity="1"><g transform="translate(51.343302, 225.906077)"><g><path d="M 80.75 -49.546875 C 82.539062 -49.546875 84.023438 -48.953125 85.203125 -47.765625 C 86.390625 -46.585938 86.984375 -45.0625 86.984375 -43.1875 L 86.984375 -13.953125 C 86.984375 -11.992188 86.332031 -10.484375 85.03125 -9.421875 C 76.46875 -2.328125 66.476562 1.21875 55.0625 1.21875 C 46.332031 1.21875 38.359375 -0.941406 31.140625 -5.265625 C 23.921875 -9.585938 18.226562 -15.5 14.0625 -23 C 9.90625 -30.5 7.828125 -38.78125 7.828125 -47.84375 C 7.828125 -56.8125 9.90625 -65.023438 14.0625 -72.484375 C 18.226562 -79.953125 23.921875 -85.867188 31.140625 -90.234375 C 38.359375 -94.597656 46.332031 -96.78125 55.0625 -96.78125 C 61.257812 -96.78125 66.617188 -95.960938 71.140625 -94.328125 C 75.671875 -92.691406 80.257812 -90 84.90625 -86.25 C 85.882812 -85.519531 86.535156 -84.765625 86.859375 -83.984375 C 87.191406 -83.210938 87.359375 -82.296875 87.359375 -81.234375 C 87.359375 -79.609375 86.765625 -78.265625 85.578125 -77.203125 C 84.398438 -76.140625 82.992188 -75.609375 81.359375 -75.609375 C 79.890625 -75.609375 78.503906 -76.140625 77.203125 -77.203125 C 73.859375 -80.054688 70.59375 -82.113281 67.40625 -83.375 C 64.226562 -84.644531 60.113281 -85.28125 55.0625 -85.28125 C 48.695312 -85.28125 42.84375 -83.601562 37.5 -80.25 C 32.15625 -76.90625 27.910156 -72.359375 24.765625 -66.609375 C 21.628906 -60.859375 20.0625 -54.601562 20.0625 -47.84375 C 20.0625 -40.988281 21.628906 -34.707031 24.765625 -29 C 27.910156 -23.289062 32.15625 -18.765625 37.5 -15.421875 C 42.84375 -12.078125 48.695312 -10.40625 55.0625 -10.40625 C 61.90625 -10.40625 68.46875 -12.441406 74.75 -16.515625 L 74.75 -38.296875 L 57.875 -38.296875 C 56 -38.296875 54.46875 -38.820312 53.28125 -39.875 C 52.09375 -40.9375 51.5 -42.285156 51.5 -43.921875 C 51.5 -45.554688 52.09375 -46.898438 53.28125 -47.953125 C 54.46875 -49.015625 56 -49.546875 57.875 -49.546875 Z M 80.75 -49.546875 "/></g></g></g><g fill="#000000" fill-opacity="1"><g transform="translate(146.401635, 225.906077)"><g><path d="M 18.46875 0 C 16.675781 0 15.1875 -0.585938 14 -1.765625 C 12.820312 -2.953125 12.234375 -4.441406 12.234375 -6.234375 L 12.234375 -60.6875 C 12.234375 -62.5625 12.820312 -64.066406 14 -65.203125 C 15.1875 -66.347656 16.675781 -66.921875 18.46875 -66.921875 C 20.34375 -66.921875 21.851562 -66.347656 23 -65.203125 C 24.144531 -64.066406 24.71875 -62.5625 24.71875 -60.6875 L 24.71875 -6.234375 C 24.71875 -4.441406 24.144531 -2.953125 23 -1.765625 C 21.851562 -0.585938 20.34375 0 18.46875 0 Z M 18.46875 -77.8125 C 16.269531 -77.8125 14.375 -78.601562 12.78125 -80.1875 C 11.1875 -81.78125 10.390625 -83.679688 10.390625 -85.890625 C 10.390625 -88.085938 11.1875 -89.976562 12.78125 -91.5625 C 14.375 -93.15625 16.269531 -93.953125 18.46875 -93.953125 C 20.675781 -93.953125 22.570312 -93.15625 24.15625 -91.5625 C 25.75 -89.976562 26.546875 -88.085938 26.546875 -85.890625 C 26.546875 -83.679688 25.75 -81.78125 24.15625 -80.1875 C 22.570312 -78.601562 20.675781 -77.8125 18.46875 -77.8125 Z M 18.46875 -77.8125 "/></g></g></g><g fill="#000000" fill-opacity="1"><g transform="translate(183.348379, 225.906077)"><g><path d="M 55.421875 -11.5 C 59.253906 -11.5 61.171875 -9.582031 61.171875 -5.75 C 61.171875 -1.914062 59.253906 0 55.421875 0 L 13.703125 0 C 9.867188 0 7.953125 -1.914062 7.953125 -5.75 C 7.953125 -7.382812 8.316406 -8.691406 9.046875 -9.671875 L 43.671875 -55.421875 L 12.484375 -55.421875 C 8.648438 -55.421875 6.734375 -57.335938 6.734375 -61.171875 C 6.734375 -65.003906 8.648438 -66.921875 12.484375 -66.921875 L 54.203125 -66.921875 C 58.035156 -66.921875 59.953125 -65.003906 59.953125 -61.171875 C 59.953125 -59.535156 59.582031 -58.226562 58.84375 -57.25 L 24.34375 -11.5 Z M 55.421875 -11.5 "/></g></g></g><g clip-path="url(#9de6ee1771)"><path fill="#ffb8b8" d="M 297.148438 224.003906 C 297.148438 224.695312 297.082031 225.375 296.949219 226.054688 C 296.8125 226.730469 296.613281 227.386719 296.351562 228.023438 C 296.085938 228.660156 295.761719 229.265625 295.378906 229.839844 C 294.996094 230.410156 294.5625 230.941406 294.074219 231.429688 C 293.585938 231.917969 293.054688 232.351562 292.484375 232.734375 C 291.910156 233.117188 291.304688 233.441406 290.667969 233.707031 C 290.03125 233.96875 289.375 234.167969 288.699219 234.304688 C 288.019531 234.4375 287.339844 234.503906 286.648438 234.503906 C 285.960938 234.503906 285.277344 234.4375 284.601562 234.304688 C 283.925781 234.167969 283.269531 233.96875 282.632812 233.707031 C 281.992188 233.441406 281.390625 233.117188 280.816406 232.734375 C 280.242188 232.351562 279.710938 231.917969 279.222656 231.429688 C 278.738281 230.941406 278.300781 230.410156 277.917969 229.839844 C 277.535156 229.265625 277.210938 228.660156 276.949219 228.023438 C 276.683594 227.386719 276.484375 226.730469 276.351562 226.054688 C 276.214844 225.375 276.148438 224.695312 276.148438 224.003906 C 276.148438 223.316406 276.214844 222.632812 276.351562 221.957031 C 276.484375 221.28125 276.683594 220.625 276.949219 219.984375 C 277.210938 219.347656 277.535156 218.746094 277.917969 218.171875 C 278.300781 217.597656 278.738281 217.066406 279.222656 216.578125 C 279.710938 216.09375 280.242188 215.65625 280.816406 215.273438 C 281.390625 214.890625 281.992188 214.566406 282.632812 214.304688 C 283.269531 214.039062 283.925781 213.839844 284.601562 213.707031 C 285.277344 213.570312 285.960938 213.503906 286.648438 213.503906 C 287.339844 213.503906 288.019531 213.570312 288.699219 213.707031 C 289.375 213.839844 290.03125 214.039062 290.667969 214.304688 C 291.304688 214.566406 291.910156 214.890625 292.484375 215.273438 C 293.054688 215.65625 293.585938 216.09375 294.074219 216.578125 C 294.5625 217.066406 294.996094 217.597656 295.378906 218.171875 C 295.761719 218.746094 296.085938 219.347656 296.351562 219.984375 C 296.613281 220.625 296.8125 221.28125 296.949219 221.957031 C 297.082031 222.632812 297.148438 223.316406 297.148438 224.003906 Z M 297.148438 224.003906 " fill-opacity="1" fill-rule="nonzero"/></g></svg>