<svg xmlns="http://www.w3.org/2000/svg" xmlns:xlink="http://www.w3.org/1999/xlink" width="500" zoomAndPan="magnify" viewBox="0 0 375 374.999991" height="500" preserveAspectRatio="xMidYMid meet" version="1.0"><defs><clipPath id="3abf2ccecf"><path d="M 68.015625 67.722656 L 307.265625 67.722656 L 307.265625 306.972656 L 68.015625 306.972656 Z M 68.015625 67.722656 " clip-rule="nonzero"/></clipPath></defs><g clip-path="url(#3abf2ccecf)"><path fill="#ffffff" d="M 187.640625 67.722656 C 121.675781 67.722656 68.015625 121.382812 68.015625 187.347656 C 68.015625 253.3125 121.675781 306.972656 187.640625 306.972656 C 253.605469 306.972656 307.265625 253.3125 307.265625 187.347656 C 307.265625 121.382812 253.605469 67.722656 187.640625 67.722656 Z M 253.605469 191.578125 L 202.722656 242.503906 C 201.058594 244.171875 198.878906 244.984375 196.699219 244.984375 C 194.476562 244.984375 192.296875 244.171875 190.632812 242.503906 C 187.300781 239.128906 187.300781 233.746094 190.632812 230.414062 L 226.945312 194.097656 L 127.699219 194.097656 C 123 194.097656 119.15625 190.253906 119.15625 185.554688 C 119.15625 180.855469 123 177.011719 127.699219 177.011719 L 226.945312 177.011719 L 194.222656 144.285156 C 190.890625 140.953125 190.890625 135.566406 194.222656 132.191406 C 197.554688 128.859375 202.980469 128.859375 206.3125 132.191406 L 253.605469 179.53125 C 256.9375 182.863281 256.9375 188.246094 253.605469 191.578125 Z M 253.605469 191.578125 " fill-opacity="1" fill-rule="nonzero"/></g></svg>