<svg xmlns="http://www.w3.org/2000/svg" xmlns:xlink="http://www.w3.org/1999/xlink" width="500" zoomAndPan="magnify" viewBox="0 0 375 374.999991" height="500" preserveAspectRatio="xMidYMid meet" version="1.0"><defs><clipPath id="704476467e"><path d="M 64.242188 79.703125 L 214 79.703125 L 214 294.953125 L 64.242188 294.953125 Z M 64.242188 79.703125 " clip-rule="nonzero"/></clipPath><clipPath id="842cf3fc62"><path d="M 111 79.703125 L 263 79.703125 L 263 294.953125 L 111 294.953125 Z M 111 79.703125 " clip-rule="nonzero"/></clipPath><clipPath id="5c0d9f8d3a"><path d="M 159 79.703125 L 310.992188 79.703125 L 310.992188 294.953125 L 159 294.953125 Z M 159 79.703125 " clip-rule="nonzero"/></clipPath></defs><g clip-path="url(#704476467e)"><path fill="#000000" d="M 64.410156 79.960938 L 64.242188 294.609375 L 213.671875 187.5 Z M 64.410156 79.960938 " fill-opacity="1" fill-rule="nonzero"/></g><g clip-path="url(#842cf3fc62)"><path fill="#000000" d="M 114.648438 83.109375 L 259.558594 187.5 L 114.5625 291.378906 L 114.648438 83.109375 M 114.648438 79.707031 C 114.136719 79.707031 113.625 79.792969 113.113281 80.046875 C 112.003906 80.644531 111.238281 81.835938 111.238281 83.109375 L 111.152344 291.378906 C 111.152344 292.65625 111.835938 293.84375 113.027344 294.441406 C 113.539062 294.695312 114.050781 294.78125 114.5625 294.78125 C 115.246094 294.78125 115.929688 294.527344 116.523438 294.101562 L 261.523438 190.222656 C 262.375 189.542969 262.972656 188.519531 262.972656 187.5 C 262.972656 186.394531 262.460938 185.371094 261.523438 184.777344 L 116.695312 80.386719 C 116.097656 79.960938 115.417969 79.707031 114.648438 79.707031 Z M 114.648438 79.707031 " fill-opacity="1" fill-rule="nonzero"/></g><g clip-path="url(#5c0d9f8d3a)"><path fill="#000000" d="M 162.753906 83.28125 L 307.578125 187.667969 L 162.582031 291.546875 L 162.753906 83.28125 M 162.753906 79.878906 C 162.242188 79.878906 161.730469 79.960938 161.21875 80.21875 C 160.109375 80.8125 159.34375 82.003906 159.34375 83.28125 L 159.171875 291.546875 C 159.171875 292.824219 159.855469 294.015625 161.046875 294.609375 C 161.558594 294.867188 162.070312 294.953125 162.582031 294.953125 C 163.265625 294.953125 163.949219 294.695312 164.542969 294.269531 L 309.542969 190.390625 C 310.394531 189.710938 310.992188 188.691406 310.992188 187.667969 C 310.992188 186.5625 310.480469 185.542969 309.542969 184.949219 L 164.800781 80.558594 C 164.203125 80.132812 163.4375 79.878906 162.753906 79.878906 Z M 162.753906 79.878906 " fill-opacity="1" fill-rule="nonzero"/></g></svg>